<svg xmlns="http://www.w3.org/2000/svg" viewBox="0 0 119.02326 119.02326"><defs><style>.cls-1{fill:#f2b705;}.cls-2{fill:#d38d11;}.cls-3,.cls-4{fill:#fff;}.cls-4,.cls-5{opacity:0.44;}.cls-5{fill:#754c24;}</style></defs><g id="レイヤー_2" data-name="レイヤー 2"><g id="レイヤー_1-2" data-name="レイヤー 1"><circle class="cls-1" cx="39.25606" cy="79.76725" r="37.3175"/><path class="cls-2" d="M39.256,119.02326a39.256,39.256,0,1,1,39.25605-39.256A39.30054,39.30054,0,0,1,39.256,119.02326Zm0-74.63495A35.37891,35.37891,0,1,0,74.635,79.76721,35.419,35.419,0,0,0,39.256,44.38831Z"/><path class="cls-3" d="M24.0119,100.228q-.13265-3.00684-.13252-6.63138,0-3.49161.13252-7.427.13266-3.9342.39783-7.97956.26531-4.04535.70749-7.8914-.7079.17728-1.34845.33157-.64137.15537-1.17158.33157l-2.25445-7.02921a80.50624,80.50624,0,0,1,17.816-2.51976q14.45611,0,14.45625,11.008a10.35742,10.35742,0,0,1-3.44821,8.20052q-3.44862,3.02874-10.12395,3.82413a46.76194,46.76194,0,0,0,8.11236,5.59232,61.323,61.323,0,0,0,8.28922,3.69161L50.58151,100.228a29.38551,29.38551,0,0,1-4.90728-2.34316q-2.56465-1.50219-5.08415-3.31542Q38.07046,92.75688,35.79369,90.9q-2.27743-1.85676-4.04536-3.44821-.04422,3.05025-.06626,6.167-.02271,3.11678-.0219,6.43233l-.26531.26531q-1.68071,0-3.60318.02218-1.92288.0215-3.47039.15469Zm13.749-31.786q-1.23812,0-2.56412.11034-1.32654.11117-2.65255.28749-.17727,2.47621-.30939,4.8851-.13266,2.41009-.22123,4.79666,1.94479-.04341,4.222-.24313a22.11,22.11,0,0,0,4.3104-.79593,8.65185,8.65185,0,0,0,3.33787-1.746,3.86777,3.86777,0,0,0,1.3041-3.05065,3.43515,3.43515,0,0,0-1.81254-3.22726A11.90718,11.90718,0,0,0,37.76093,68.442Z"/><path class="cls-3" d="M58.2871,60.28717a6.013,6.013,0,0,0-3.32023,3.32016.09674.09674,0,0,1-.17366,0,6.01157,6.01157,0,0,0-3.31991-3.32015.09674.09674,0,0,1,0-.17365,6.01169,6.01169,0,0,0,3.31991-3.32018.09674.09674,0,0,1,.17366,0,6.013,6.013,0,0,0,3.32023,3.32019A.09674.09674,0,0,1,58.2871,60.28717Z"/><path class="cls-3" d="M59.16339,56.94945a2.69311,2.69311,0,0,0-1.48706,1.487.04333.04333,0,0,1-.07778,0,2.69249,2.69249,0,0,0-1.48692-1.487.04333.04333,0,0,1,0-.07777,2.69251,2.69251,0,0,0,1.48692-1.487.04333.04333,0,0,1,.07778,0,2.69311,2.69311,0,0,0,1.48706,1.487A.04332.04332,0,0,1,59.16339,56.94945Z"/><path class="cls-4" d="M6.2805,82.42919A35.22887,35.22887,0,0,1,67.55563,58.7078a35.22878,35.22878,0,1,0-54.36458,44.67565A35.06844,35.06844,0,0,1,6.2805,82.42919Z"/><path class="cls-5" d="M64.93,55.36041a35.32625,35.32625,0,0,1-52.19558,47.5877A35.32695,35.32695,0,1,0,64.93,55.36041Z"/><circle class="cls-1" cx="79.76722" cy="39.25608" r="37.3175"/><path class="cls-2" d="M79.76721,78.51209a39.256,39.256,0,1,1,39.256-39.256A39.30053,39.30053,0,0,1,79.76721,78.51209Zm0-74.63495A35.37891,35.37891,0,1,0,115.14612,39.256,35.419,35.419,0,0,0,79.76721,3.87714Z"/><path class="cls-3" d="M64.52307,59.71684q-.13266-3.00684-.13252-6.63138,0-3.49162.13252-7.427.13266-3.93422.39783-7.97957.2653-4.04535.70749-7.89139-.7079.17727-1.34845.33157-.64137.15537-1.17158.33157L60.8539,23.42139a80.50582,80.50582,0,0,1,17.816-2.51977q14.45611,0,14.45625,11.008A10.35739,10.35739,0,0,1,89.678,40.11018Q86.22936,43.13892,79.554,43.93431a46.7617,46.7617,0,0,0,8.11235,5.59232,61.32372,61.32372,0,0,0,8.28923,3.69162l-4.86292,6.49859a29.3863,29.3863,0,0,1-4.90728-2.34316q-2.56466-1.5022-5.08415-3.31542-2.51962-1.81254-4.79639-3.66944-2.27745-1.85676-4.04536-3.44821-.04422,3.05025-.06626,6.167-.02273,3.11677-.02191,6.43233l-.26531.26531q-1.68069,0-3.60317.02218-1.92288.0215-3.47039.1547Zm13.749-31.786q-1.23811,0-2.56412.11035-1.32654.11115-2.65255.28748-.17728,2.47623-.30939,4.8851-.13266,2.41009-.22123,4.79666,1.94479-.0434,4.222-.24313a22.11033,22.11033,0,0,0,4.3104-.79593,8.65181,8.65181,0,0,0,3.33786-1.746,3.86777,3.86777,0,0,0,1.3041-3.05065,3.43513,3.43513,0,0,0-1.81254-3.22725A11.907,11.907,0,0,0,78.2721,27.93083Z"/><path class="cls-3" d="M98.79826,19.776A6.013,6.013,0,0,0,95.478,23.09616a.09673.09673,0,0,1-.17365,0A6.01165,6.01165,0,0,0,91.98446,19.776a.09674.09674,0,0,1,0-.17365,6.01167,6.01167,0,0,0,3.31992-3.32018.09673.09673,0,0,1,.17365,0,6.01306,6.01306,0,0,0,3.32023,3.32019A.09674.09674,0,0,1,98.79826,19.776Z"/><path class="cls-3" d="M99.67456,16.43829a2.693,2.693,0,0,0-1.48706,1.487.04333.04333,0,0,1-.07778,0,2.69248,2.69248,0,0,0-1.48692-1.487.04333.04333,0,0,1,0-.07778,2.69248,2.69248,0,0,0,1.48692-1.487.04333.04333,0,0,1,.07778,0,2.69309,2.69309,0,0,0,1.48706,1.487A.04333.04333,0,0,1,99.67456,16.43829Z"/><path class="cls-4" d="M46.79167,41.918A35.22887,35.22887,0,0,1,108.0668,18.19663,35.22878,35.22878,0,1,0,53.70222,62.87228,35.06835,35.06835,0,0,1,46.79167,41.918Z"/><path class="cls-5" d="M105.44113,14.84924a35.32625,35.32625,0,0,1-52.19559,47.5877,35.327,35.327,0,1,0,52.19559-47.5877Z"/><path class="cls-3" d="M27.39778,30.28742a7.37174,7.37174,0,0,0-4.07049,4.07041.1186.1186,0,0,1-.2129,0,7.37,7.37,0,0,0-4.07011-4.0704.1186.1186,0,0,1,0-.21289,7.3701,7.3701,0,0,0,4.07011-4.07043.1186.1186,0,0,1,.2129,0,7.37181,7.37181,0,0,0,4.07049,4.07045A.1186.1186,0,0,1,27.39778,30.28742Z"/><path class="cls-3" d="M89.90288,102.19552a9.97721,9.97721,0,0,0-5.50918,5.50907.16052.16052,0,0,1-.28815,0,9.975,9.975,0,0,0-5.50866-5.50905.16052.16052,0,0,1,0-.28813,9.975,9.975,0,0,0,5.50866-5.5091.16052.16052,0,0,1,.28815,0,9.9773,9.9773,0,0,0,5.50918,5.50912A.16052.16052,0,0,1,89.90288,102.19552Z"/><path class="cls-3" d="M37.66663,21.04572a9.97722,9.97722,0,0,0-5.50918,5.50906.16051.16051,0,0,1-.28814,0,9.97492,9.97492,0,0,0-5.50866-5.50905.16052.16052,0,0,1,0-.28814,9.975,9.975,0,0,0,5.50866-5.5091.16051.16051,0,0,1,.28814,0,9.97733,9.97733,0,0,0,5.50918,5.50912A.16052.16052,0,0,1,37.66663,21.04572Z"/><path class="cls-3" d="M94.11893,93.39973a7.37174,7.37174,0,0,0-4.07049,4.07041.1186.1186,0,0,1-.2129,0,7.37,7.37,0,0,0-4.07011-4.07039.1186.1186,0,0,1,0-.21289,7.37012,7.37012,0,0,0,4.07011-4.07044.1186.1186,0,0,1,.2129,0,7.37184,7.37184,0,0,0,4.07049,4.07045A.1186.1186,0,0,1,94.11893,93.39973Z"/></g></g></svg>