<svg xmlns="http://www.w3.org/2000/svg" viewBox="0 0 125 125"><defs><style>.cls-1{fill:#f9f9f9;}.cls-2,.cls-3,.cls-5{fill:none;}.cls-2{stroke:#ffd43c;stroke-miterlimit:10;}.cls-3,.cls-5{stroke:#282828;stroke-linecap:round;stroke-linejoin:round;}.cls-3{stroke-width:4px;}.cls-4{fill:#3ef1ff;}.cls-5{stroke-width:3px;}.cls-6{fill:#3eff9a;}.cls-7{fill:#f0f;}.cls-8{fill:#002bff;}.cls-9{fill:#282828;}</style></defs><g id="レイヤー_2" data-name="レイヤー 2"><g id="レイヤー_1-2" data-name="レイヤー 1"><circle class="cls-1" cx="62.5" cy="62.5" r="62.5"/><path class="cls-2" d="M26.13,30.49s2.37-6.55,7.85-6.1,3.94,7.16,2,6.25S32.34,23,41,25.2s10.47,7.67,6.38,7.07-3.26-10.43,5.23-7.58,9.53,5.56,6.62,6.56-7.49-3.93,1.88-6.56"/><path class="cls-2" d="M65.29,106.55s.83-6.92,6.27-7.72,5.46,6.08,3.36,5.64S69.64,97.8,78.54,98s11.94,5.11,7.82,5.45-5.54-9.43,3.37-8.58,10.55,3.26,7.94,4.9S89.48,97.68,98,93"/><polygon class="cls-3" points="31.97 40.51 28.34 35.56 22.72 38.04 25.7 30.41 23.44 23.84 28.92 24.07 33.14 17.53 33.55 25.3 38.42 27.83 33.19 32.41 31.97 40.51"/><polygon class="cls-4" points="30.97 40.51 27.34 35.56 21.72 38.04 24.7 30.41 22.44 23.84 27.92 24.07 32.14 17.53 32.55 25.3 37.42 27.83 32.19 32.41 30.97 40.51"/><polygon class="cls-5" points="99.91 86.06 96.27 90.42 91.02 88.27 93.58 94.96 91.2 100.75 96.42 100.52 100.21 106.25 100.87 99.41 105.59 97.17 100.78 93.17 99.91 86.06"/><polygon class="cls-6" points="99.41 86.06 95.77 90.42 90.52 88.27 93.08 94.96 90.7 100.75 95.92 100.52 99.71 106.25 100.37 99.41 105.09 97.17 100.28 93.17 99.41 86.06"/><rect class="cls-7" x="69.02" y="21.68" width="2.44" height="2.44"/><rect class="cls-7" x="71.46" y="19.24" width="2.44" height="2.44"/><rect class="cls-7" x="73.9" y="21.68" width="2.44" height="2.44"/><rect class="cls-7" x="71.46" y="28.32" width="2.44" height="2.44"/><rect class="cls-7" x="71.46" y="30.75" width="2.44" height="2.44"/><rect class="cls-7" x="83.64" y="30.75" width="2.44" height="2.44"/><rect class="cls-7" x="73.9" y="28.32" width="2.44" height="2.44"/><rect class="cls-7" x="76.33" y="28.32" width="2.44" height="2.44"/><rect class="cls-7" x="78.77" y="28.32" width="2.44" height="2.44"/><rect class="cls-7" x="81.21" y="28.32" width="2.44" height="2.44"/><rect class="cls-7" x="83.64" y="28.32" width="2.44" height="2.44"/><rect class="cls-7" x="71.46" y="31.97" width="2.44" height="2.44"/><rect class="cls-7" x="73.9" y="31.97" width="2.44" height="2.44"/><rect class="cls-7" x="76.33" y="31.97" width="2.44" height="2.44"/><rect class="cls-7" x="78.77" y="31.97" width="2.44" height="2.44"/><rect class="cls-7" x="81.21" y="31.97" width="2.44" height="2.44"/><rect class="cls-7" x="83.64" y="31.97" width="2.44" height="2.44"/><rect class="cls-7" x="81.54" y="21.68" width="2.44" height="2.44"/><rect class="cls-7" x="83.97" y="19.24" width="2.44" height="2.44"/><rect class="cls-7" x="86.41" y="21.68" width="2.44" height="2.44"/><rect class="cls-8" x="35.85" y="93.28" width="2.44" height="2.44"/><rect class="cls-8" x="38.29" y="95.72" width="2.44" height="2.44"/><rect class="cls-8" x="40.72" y="93.28" width="2.44" height="2.44"/><rect class="cls-8" x="48.36" y="93.28" width="2.44" height="2.44"/><rect class="cls-8" x="50.8" y="95.72" width="2.44" height="2.44"/><rect class="cls-8" x="50.8" y="99.77" width="2.44" height="2.44"/><rect class="cls-8" x="50.8" y="102.21" width="2.44" height="2.44"/><rect class="cls-8" x="50.8" y="109.52" width="2.44" height="2.44"/><rect class="cls-8" x="48.36" y="104.65" width="2.44" height="2.44"/><rect class="cls-8" x="48.36" y="107.08" width="2.44" height="2.44"/><rect class="cls-8" x="53.24" y="104.65" width="2.44" height="2.44"/><rect class="cls-8" x="53.24" y="107.08" width="2.44" height="2.44"/><rect class="cls-8" x="53.24" y="93.28" width="2.44" height="2.44"/><path class="cls-9" d="M31.85,71.6V68.49H44.28V53H31.85V49.85h28V53H47.38V68.49H59.81V71.6H47.38v6.21h-3.1V71.6ZM35,59.17V56.06h3.1v3.11h3.11v3.11H38.06V59.17Zm15.53,3.11V59.17h3.1v3.11Zm3.1-3.11V56.06H56.7v3.11Z"/><path class="cls-9" d="M72.85,71.6V68.49H76V62.28H69.75V71.6H66.64v6.21h-3.1V71.6h3.1V53H79.07V46.75h3.1V53h6.22V49.85h3.1v6.21H85.28v9.32h3.11V71.6h3.1v6.21h-3.1V71.6H85.28v3.1H82.17V71.6h3.11V65.38H82.17V56.06H69.75v3.11h9.32V71.6ZM76,77.81V74.7h6.21v3.11ZM88.39,65.38V59.17h3.1v6.21Z"/></g></g></svg>