<svg xmlns="http://www.w3.org/2000/svg" xmlns:xlink="http://www.w3.org/1999/xlink" viewBox="0 0 546.15 532.62"><defs><style>.cls-1{isolation:isolate;}.cls-2{fill:url(#名称未設定グラデーション_8);}.cls-3{fill:url(#名称未設定グラデーション_7);}.cls-4{fill:url(#名称未設定グラデーション_8-2);}.cls-5{fill:#f50;}.cls-6{fill:#fff;}.cls-7{fill:#493c41;}.cls-13,.cls-8{fill:#ffc8a9;}.cls-9{fill:#f5fcff;}.cls-10{fill:#a1e0ff;}.cls-11{fill:#5ab8f2;}.cls-12{fill:#2c2a49;}.cls-13,.cls-19{mix-blend-mode:multiply;}.cls-14{fill:#261f22;}.cls-15{fill:#4d467f;}.cls-16{fill:#c6c2ff;}.cls-17{fill:#fe6c9a;}.cls-18{fill:#ff9161;}.cls-19{fill:none;stroke:#ffc8a9;stroke-miterlimit:10;}.cls-20{font-size:57.72px;}.cls-20,.cls-33{fill:#ffc91f;font-family:Asphalt-Black, Asphalt;font-weight:800;}.cls-21{fill:#8bcee8;}.cls-22{fill:#99e0ff;}.cls-23{fill:#217caa;}.cls-24{fill:#ffebf3;}.cls-25{fill:#ffcad8;}.cls-26{fill:#ff8da6;}.cls-27{fill:#ffa6c2;}.cls-28{fill:#ffccd9;}.cls-29{fill:#ff4374;}.cls-30{fill:#f74169;}.cls-31{fill:#ffc0ce;}.cls-32{fill:#ff506f;}.cls-33{font-size:53px;}</style><linearGradient id="名称未設定グラデーション_8" x1="87.06" y1="534.32" x2="87.06" y2="496.17" gradientUnits="userSpaceOnUse"><stop offset="0" stop-color="#f9be85"/><stop offset="1" stop-color="#ff620b"/></linearGradient><linearGradient id="名称未設定グラデーション_7" x1="153.19" y1="534.32" x2="153.19" y2="496.17" gradientTransform="translate(306.39 1016.47) rotate(180)" gradientUnits="userSpaceOnUse"><stop offset="0" stop-color="#ffab50"/><stop offset="1" stop-color="#ff620b"/></linearGradient><linearGradient id="名称未設定グラデーション_8-2" x1="121.12" y1="491.9" x2="116.62" y2="167.77" xlink:href="#名称未設定グラデーション_8"/></defs><g class="cls-1"><g id="レイヤー_2" data-name="レイヤー 2"><g id="レイヤー_1-2" data-name="レイヤー 1"><rect class="cls-2" x="64.49" y="489.48" width="45.15" height="37.52" rx="17.8"/><rect class="cls-3" x="130.62" y="489.48" width="45.15" height="37.52" rx="17.8" transform="translate(306.39 1016.47) rotate(-180)"/><path class="cls-4" d="M236.6,408.48l-31.93-46.76V330.79h0c-.68-31.23-12.64-59-31-77.35l6.1-31.41-21.87,19a72.14,72.14,0,0,0-27.64-9.91l-9.31-27-9.31,27a72.15,72.15,0,0,0-28.3,10.31L60.94,222l6.28,32.36c-17.88,18.36-29.45,45.7-30.11,76.4h0v28.74l-33.42,49a21,21,0,0,0,5.5,29.16l3.75,2.57a21,21,0,0,0,24.17-.35v71.65a4.22,4.22,0,0,0,4.22,4.23H200.45a4.22,4.22,0,0,0,4.22-4.23V440.84a21,21,0,0,0,22.68-.63l3.75-2.57A21,21,0,0,0,236.6,408.48Z"/><path class="cls-5" d="M126.19,297.09a10.88,10.88,0,0,0-5.75-1.56,12.87,12.87,0,0,0-6.37,1.56c-3.49,2-7.07,3.29-5,5.88s4.13.6,7.62-1.42l0,0a6.83,6.83,0,0,1,6.88,0l0,0c3.49,2,5.66,4,7.62,1.42S129.68,299.1,126.19,297.09Z"/><path class="cls-6" d="M68.53,284.58,106.76,272s6.27,24.23-13.48,25.07C77.2,297.8,73.34,291.06,68.53,284.58Z"/><path class="cls-7" d="M88.91,292.26c7.76,0,14-6.62,14-14.79a15.14,15.14,0,0,0-.53-4l-26.79,8.78A14.11,14.11,0,0,0,88.91,292.26Z"/><circle class="cls-6" cx="83.79" cy="287.45" r="1.95"/><path class="cls-6" d="M171.73,284.58,133.5,272s-6.27,24.23,13.47,25.07C163.06,297.8,166.91,291.06,171.73,284.58Z"/><path class="cls-7" d="M151.35,292.23c-7.76,0-14-6.62-14-14.79a15.57,15.57,0,0,1,.52-4l26.8,8.78A14.12,14.12,0,0,1,151.35,292.23Z"/><circle class="cls-6" cx="142.58" cy="284.85" r="1.95"/><path class="cls-8" d="M382.17,317.05c-.72-2.81-17.29-13.51-18.17-16s13.64,9.05,15.22,9c2.69-.12,2.07-6.28,1.19-9.73s-13.23-8.39-16.47-10.56c-4.24-2.84-2.14-2.38-7.46-5.69-4.3-2.67-10.92-7.67-14.05-11.08-2-12-4.2-23.38-5.7-28.06l-11.34-59.45-22.92,4.29,12.83,57.11c1.46,11.16,5.88,26.71,11.26,38.84l-3.73,24.41s-6.93,13,1.07,10.13c7.18-2.59,11.13-12.27,11.13-12.27s15.86,31.74,17.77,33.62c2.34,2.3,8-1.92,7-5.92-.78-3.22-8.62-18.48-9.66-19.83s17.22,19.07,19.5,22.38,8.48-.1,7.64-6.09-12.33-15.93-17.07-22.77,15.52,17.33,17.75,17.31C382.11,326.6,382.89,319.85,382.17,317.05Z"/><polygon class="cls-8" points="309.85 357.77 320.5 417.35 332.2 474.33 317.1 475.7 299.04 419.04 286.88 361.79 309.85 357.77"/><polygon class="cls-9" points="321.54 421.69 332.2 474.33 317.1 475.7 301.56 426.6 321.54 421.69"/><polygon class="cls-8" points="229.82 347.94 229.2 408.46 227.11 466.59 242.23 465.45 250.64 406.57 253.14 348.1 229.82 347.94"/><polygon class="cls-9" points="228.41 430.5 227.11 466.59 242.23 465.45 246.98 432.18 228.41 430.5"/><path class="cls-10" d="M223.7,464.53c-.44-2.51-1-5-2.69-7s-4.25-3-6.69-3.66a12.59,12.59,0,0,0-8.22,0,18.1,18.1,0,0,0-6.32,4.72c-3.05,3.32-6.76,8.86-4.28,13.49,1.19,2.23,3.59,3.24,6,3.61a29.68,29.68,0,0,0,8.26.13c5-.61,12.92-2.33,13.54-8.48a1.88,1.88,0,0,0-3.75,0c-.15,1.45-1.88,2.37-3,2.91a24,24,0,0,1-5.74,1.66,27.34,27.34,0,0,1-6.45.34c-1.6-.1-3.8-.17-5-1.34-2.55-2.4,1-7.18,2.62-9.06a18.61,18.61,0,0,1,4.37-3.89,7.69,7.69,0,0,1,6-.74c1.94.46,4.33,1.06,5.74,2.56s1.74,3.84,2.09,5.82c.42,2.37,4,1.36,3.62-1Z"/><path class="cls-11" d="M251.56,471.13c-1.66-9.84-3.38-17.56-12.11-9.35-4.33,4.07-10.61,5.78-15.84,6.46A35.35,35.35,0,0,0,193.25,459c-19.12,3.21-32.08,21-28.94,39.63s21.19,31.21,40.32,28a35.35,35.35,0,0,0,7.11-2c6.47-1.43,14.09-5.49,31.2-9.54C267.67,509.3,253.21,481,251.56,471.13Z"/><path class="cls-12" d="M296,249.54H228.56s-32.7,93.11-28.13,123.77c13.35.36,47.42,0,57.26-1.44,1.53-6.59,4.07-50.5,4.58-51.31.51.81,2.09,44.72,3.62,51.31,9.83,1.44,43.91,1.8,57.26,1.44C327.72,342.65,296,249.54,296,249.54Z"/><path class="cls-8" d="M261.25,142.06S260,151.63,259,154.48s10.72,11.83,10.72,11.83l10.55-12.11s-4.44-11.21-3.83-12.86S261.25,142.06,261.25,142.06Z"/><path class="cls-13" d="M261.25,142.06s-.33,2.57-.78,5.44a22,22,0,0,0,9.21,1.8,23.25,23.25,0,0,0,8.28-1.36c-1-2.87-1.83-5.81-1.54-6.6C277,139.69,261.25,142.06,261.25,142.06Z"/><path class="cls-8" d="M319.19,86c-7.24-5.08-11.72,2.56-13.61,7l2.17-49.17L203.9,67.4l13.49,32.39c-3.94-3-10.54-6.44-14.33.74-5.1,9.67,1.55,25.54,19.21,24.54,5.14,10.75,21.94,18.66,41.91,18.7,24,.06,43.49-11.28,43.63-25.34C329.65,113,329.05,92.9,319.19,86Z"/><path class="cls-6" d="M309,99.25c-.37,9.46-8.92,13.15-19,13.13s-18-5.69-18-15.16,7.13-18.28,17.18-18C305,79.64,309.39,90,309,99.25Z"/><path class="cls-7" d="M295.89,97.29c0,7-5.44,12.72-12.11,12.71s-12.08-5.73-12.06-12.76S277.33,82,284,82.06,295.91,90.26,295.89,97.29Z"/><path class="cls-7" d="M273.79,89.47s5.77-13.8,18.76-11.44,16,11.91,16.22,16.57c0,0-4.91-14.8-19-14.11C288.63,80.55,282.58,80.72,273.79,89.47Z"/><ellipse class="cls-6" cx="287.26" cy="105.78" rx="1.86" ry="2.71" transform="translate(180.85 392.81) rotate(-89.87)"/><path class="cls-6" d="M220.42,104.56c.33,9.47,8.86,13.2,18.92,13.22s18.07-5.61,18.09-15.08-7.05-18.32-17.11-18.09C224.57,85,220.09,95.3,220.42,104.56Z"/><path class="cls-7" d="M233.55,102.67c0,7,5.39,12.74,12.06,12.75s12.1-5.67,12.12-12.7-5.55-15.22-12.22-15.24S233.57,95.64,233.55,102.67Z"/><path class="cls-7" d="M255.69,94.94S250,81.11,237,83.42s-16.06,11.83-16.29,16.5c0,0,5-14.78,19-14C240.89,86,246.94,86.15,255.69,94.94Z"/><ellipse class="cls-6" cx="249.4" cy="111.03" rx="1.86" ry="2.71" transform="translate(137.82 360.19) rotate(-89.87)"/><circle class="cls-14" cx="245.63" cy="102.53" r="2.81"/><circle class="cls-14" cx="283.78" cy="97.47" r="2.81"/><path class="cls-15" d="M198.38,103.78l.13,0C198.39,103.76,198.35,103.78,198.38,103.78Z"/><path class="cls-15" d="M317.44,55.14c-1.2-10.12-2.08-21.08-16.64-31.46s-18-10.07-27.8-7c0,0-7.75-21.28-37.33-15.83,6.65,5.82,10.68,10.53,14,11.29C246,11.72,226,10.85,209,32.91c-15.69,20.45-16,26.38-19.57,29.9,5-.27,6.26-1.91,7.47-2.69-.68,3.75-2.12,19.83,4.13,27.81,6,7.6-1.43,15.1-2.56,15.8.82-.29,5.67-2.08,11.36-4.79,4.08,3.39,15.6,1.9,15.6,1.9-3.28-.44-4.62-4-5.14-7.64a47,47,0,0,0,4.79-3.5c-.86,1.34-2.61,3.84-3.46,4.13,0,0,17,1.11,26.82-10.18.12-.13.23-.27.34-.4,4.05-1.94,8.6-5.22,13.76-11L264,81.15s15.55-9.07,15.32-30.2c3.18,7.55,12.13,25,25.27,32,.94,4.71-1.14,11.34-2.15,11.36s13,.27,14.3-12.6c4.74.75,13-.25,16-3C325.6,75.44,318.65,65.26,317.44,55.14Z"/><ellipse class="cls-13" cx="265.63" cy="113.41" rx="5.5" ry="4.86" transform="translate(-13.89 40.69) rotate(-8.54)"/><polygon class="cls-14" points="265.63 116.18 265.33 114.56 266.06 114.49 266.36 116.11 265.63 116.18"/><path class="cls-16" d="M219.45,26.91s-15.54,10-19.39,29.2c-1.49,7.41-.83,22.86,3.25,30.15C203.31,86.26,197,52.46,219.45,26.91Z"/><ellipse class="cls-16" cx="213.35" cy="44.24" rx="7.03" ry="5.66" transform="translate(104.6 233.04) rotate(-71.77)"/><ellipse class="cls-16" cx="223.31" cy="49" rx="3.03" ry="2.79" transform="translate(151.38 266.02) rotate(-84.04)"/><ellipse class="cls-16" cx="229.63" cy="51.35" rx="1.74" ry="1.6" transform="translate(154.71 274.41) rotate(-84.04)"/><ellipse class="cls-16" cx="305.85" cy="41.64" rx="5.66" ry="7.03" transform="translate(2.08 96.42) rotate(-17.98)"/><ellipse class="cls-16" cx="295.86" cy="46.36" rx="2.79" ry="3.03" transform="translate(-3.14 29.67) rotate(-5.71)"/><ellipse class="cls-16" cx="289.53" cy="48.68" rx="1.6" ry="1.74" transform="translate(-3.41 29.05) rotate(-5.71)"/><path class="cls-15" d="M272.33,80.69s8.89-8.39,19.18-7.56c0,0-1.58-2-5.62-2.45C280.62,70.15,275,74.4,272.33,80.69Z"/><path class="cls-17" d="M251.79,125.76s20-5.69,26.86-7.53c6.36-1.7,4,13.5-1.67,16-8.93,4-16.86,3.07-19.23,1.24C254.61,133.06,252,128.77,251.79,125.76Z"/><path class="cls-6" d="M281.71,119.42a2,2,0,0,0-.13-.25,2.48,2.48,0,0,0-2.93-.94c-6,1.59-21.7,6.06-25.84,7.24,1.77,1.16,8.34,1.49,20.63-3.52.89,1,4,1.94,4,1.94a38.39,38.39,0,0,0,2.08-3.48"/><path class="cls-13" d="M222.27,125.07a.41.41,0,0,1,0,.09L220.23,117l-.71.18,2,7.9Z"/><path class="cls-13" d="M308.82,111.88l-.74,0-.3,6.59h0l.72-.2Z"/><polygon class="cls-18" points="204.41 188.94 225.64 191.09 211.37 244.96 204.41 188.94"/><path class="cls-15" d="M307.25,203.91c7.57.36,34.45-10.74,31.71-15.22-10.31-5.52-6.85-26.69-23-36-23.41-2.51-28.2-.06-34.39-.08s-15.82,1.34-23.38-1.08c-6.08-2-22.13-1.48-28.22-1.21l-8-.58a7.27,7.27,0,0,0-6.38,3c-5.7,7.82-19.89,27.13-21.91,28.28-2.18,1.24,12.74,15.61,27.3,12.88l-1,59.09L302.24,254Z"/><path class="cls-8" d="M224.84,161.51s4.66-10-3.81-9.17c-7.6.74-13.81,9.13-13.81,9.13s-7.52-34.67-8.91-37c-1.7-2.8-8.19-.11-8.24,4,0,3.31,3.79,20.05,4.46,21.61s-12-22.74-13.37-26.51-8.24-2-8.9,4,8,18.49,10.91,26.28-10.76-20.62-12.92-21.16c-4-1-6.46,5.35-6.46,8.24S175.37,160.36,175.6,163s-9.15-14.15-10.69-14.47c-2.64-.56-3.57,5.56-3.57,9.13s10.25,12.91,13.59,14.92,2.32,15.38,5.57,19.6c1.92,2.5,5.51,5.47,10.64,4.49-1,12.13-3.75,45.8-3.45,50.7.36,6,15.81,12.72,23.44,2,6.82-9.59,1-51.17-1.22-64.25a17.88,17.88,0,0,0,3.55-11.21Z"/><polygon class="cls-6" points="257.71 148.41 268.51 153.1 266.27 165.94 252.92 154.43 257.71 148.41"/><polygon class="cls-6" points="279.01 148.41 268.21 153.1 270.45 165.94 283.8 154.43 279.01 148.41"/><path class="cls-19" d="M182.42,175.79c3.59-.45,18.11-7.34,20.36-10.34s-14.07,10.64-13.33,16.62"/><text class="cls-20" transform="matrix(1, 0.05, -0.05, 1, 235.88, 233.69)">N</text><ellipse class="cls-21" cx="222.58" cy="466.85" rx="3.17" ry="2.2" transform="translate(-260.43 651.77) rotate(-85.46)"/><ellipse class="cls-22" cx="171.72" cy="478.21" rx="3.33" ry="2.31" transform="translate(-336.35 472.01) rotate(-69.55)"/><path class="cls-10" d="M225.73,470.06c3.15-2.74,7.06-5,11.37-4.6s7,3.56,8.13,7.45a7.5,7.5,0,0,1-.39,6,10.35,10.35,0,0,1-4.32,3.78,11.82,11.82,0,0,1-10.8-.05,6.81,6.81,0,0,1-3.47-5,46.22,46.22,0,0,1-.73-8.47c0-2.41-3.78-2.42-3.75,0a52.78,52.78,0,0,0,.86,9.47,10.34,10.34,0,0,0,4,6.46c4.11,3.06,10,3.29,14.59,1.37,5.07-2.11,8.86-6.67,8.09-12.37-.72-5.3-4.06-10.4-9.36-11.95-6.2-1.81-12.28,1.2-16.87,5.21-1.82,1.59.84,4.23,2.65,2.65Z"/><path class="cls-10" d="M224.23,470.94a110.32,110.32,0,0,0,15.28,26.74,1.89,1.89,0,0,0,2.65,0,1.91,1.91,0,0,0,0-2.65A104.1,104.1,0,0,1,227.85,470a1.92,1.92,0,0,0-2.31-1.31,1.89,1.89,0,0,0-1.31,2.3Z"/><path class="cls-23" d="M167.18,507.67a35.45,35.45,0,0,0,44.56,17c6.47-1.43,14.09-5.49,31.2-9.54,15-3.54,15.57-15.33,13.35-26.27a209.61,209.61,0,0,1-29.73,20C202.82,522.1,179.42,514,167.18,507.67Z"/><path class="cls-10" d="M336,468.06a12.55,12.55,0,0,1,.63-5.38c.78-1.73,2.59-2.71,4.2-3.56a9.73,9.73,0,0,1,5.71-1.47,13.53,13.53,0,0,1,5.51,2.6,19.51,19.51,0,0,1,4.23,3.93c.92,1.19,2,3,1.53,4.54s-2.35,2.21-3.76,2.65a26.74,26.74,0,0,1-6.33,1.21,24.87,24.87,0,0,1-7.1-.45c-1.43-.32-3.31-.89-3.78-2.46-.69-2.31-4.31-1.32-3.62,1,1.49,5,7.81,5.65,12.18,5.72a31.23,31.23,0,0,0,8.76-1.14c2.3-.64,4.74-1.51,6.23-3.48,3.37-4.44-.62-9.9-4-12.87a23.41,23.41,0,0,0-6.89-4.3,10.9,10.9,0,0,0-8.08.15c-2.7,1.07-5.66,2.59-7.38,5s-1.81,5.45-1.76,8.3c0,2.41,3.79,2.42,3.75,0Z"/><path class="cls-11" d="M306.16,479.66c-.24-10,0-17.88,10.12-11.47,5,3.18,11.51,3.67,16.78,3.35a35.31,35.31,0,0,1,28.06-14.8c19.39-.46,35.47,14.52,35.92,33.45s-14.91,34.65-34.3,35.11a35.6,35.6,0,0,1-7.35-.59c-6.63-.18-14.88-2.73-32.45-3.46C297.56,520.18,306.4,489.63,306.16,479.66Z"/><ellipse class="cls-21" cx="333.8" cy="469.98" rx="2.2" ry="3.17" transform="translate(-113.09 105.85) rotate(-15.44)"/><ellipse class="cls-22" cx="385.9" cy="471.51" rx="2.31" ry="3.33" transform="translate(-188.99 269.64) rotate(-31.35)"/><path class="cls-10" d="M333.31,470.55c-4.68-2.73-10.44-4.49-15.76-2.56s-8,6.61-8.58,12a11.17,11.17,0,0,0,1.87,7.81,13.49,13.49,0,0,0,6.61,4.53,15.76,15.76,0,0,0,14.62-2.51,10.28,10.28,0,0,0,3.9-7.59A43.13,43.13,0,0,0,335,472a1.87,1.87,0,1,0-3.61,1,55.58,55.58,0,0,1,.82,7.27c.09,2,0,4-1.38,5.57-2.47,3-6.93,4.08-10.62,3.37-4-.77-7.51-3.31-7.57-7.66,0-3.93,1.61-8,5.36-9.73,4.46-2,9.43-.35,13.41,2a1.88,1.88,0,0,0,1.89-3.24Z"/><path class="cls-10" d="M329.28,473.66a105.36,105.36,0,0,1-9.44,27.79c-1.09,2.15,2.15,4.05,3.24,1.9a109,109,0,0,0,9.81-28.69c.45-2.36-3.16-3.37-3.61-1Z"/><path class="cls-23" d="M395.92,499.59a35,35,0,0,1-33.18,25.71,35.6,35.6,0,0,1-7.35-.59c-6.63-.18-14.88-2.73-32.45-3.46-15.38-.65-18.19-12.11-18.07-23.27a209.08,209.08,0,0,0,33,14C363.66,520.49,385.1,508.1,395.92,499.59Z"/><polygon class="cls-8" points="400.74 343.36 382.52 422.82 370.82 479.81 385.91 481.18 403.97 424.52 423.71 347.38 400.74 343.36"/><polygon class="cls-24" points="381.48 427.16 370.82 479.81 385.91 481.18 401.46 432.08 381.48 427.16"/><polygon class="cls-8" points="473.2 340.35 473.81 413.94 475.91 472.07 460.79 470.92 452.38 412.05 449.88 340.5 473.2 340.35"/><polygon class="cls-24" points="474.61 435.98 475.91 472.07 460.79 470.92 456.04 437.66 474.61 435.98"/><path class="cls-25" d="M482.94,471a12.91,12.91,0,0,1,1.67-5.32c1-1.45,2.82-2.07,4.45-2.58,2-.63,4.22-1.16,6.29-.43a13.13,13.13,0,0,1,4.67,3.38,20.33,20.33,0,0,1,3.54,4.76c.69,1.31,1.36,3.15.79,4.62s-2.52,1.88-4,2.07a26.85,26.85,0,0,1-6.46.05,26,26,0,0,1-6.9-1.68c-1.3-.52-3.38-1.51-3.54-3.12a1.93,1.93,0,0,0-1.87-1.88,1.9,1.9,0,0,0-1.88,1.88c.54,5.4,6.79,7.3,11.32,8.15a31.32,31.32,0,0,0,8.31.46c2.46-.21,5.19-.58,7-2.39,4-3.88.93-9.86-1.85-13.41a22.88,22.88,0,0,0-5.73-5.33,11.05,11.05,0,0,0-8-1.43c-2.84.47-6.06,1.48-8.21,3.47s-2.84,5-3.33,7.74c-.41,2.36,3.2,3.37,3.62,1Z"/><path class="cls-26" d="M451.46,476.6c1.66-9.83,3.38-17.55,12.11-9.34,4.33,4.07,10.6,5.77,15.84,6.46a35.33,35.33,0,0,1,30.35-9.23c19.13,3.22,32.09,21,29,39.64s-21.19,31.21-40.32,28a36,36,0,0,1-7.11-2c-6.47-1.43-14.09-5.5-31.21-9.54C435.35,514.77,449.81,486.44,451.46,476.6Z"/><ellipse class="cls-27" cx="480.43" cy="472.33" rx="2.2" ry="3.17" transform="translate(-35.89 39.53) rotate(-4.54)"/><ellipse class="cls-28" cx="531.3" cy="483.69" rx="2.31" ry="3.33" transform="translate(-135.52 216.14) rotate(-20.45)"/><path class="cls-25" d="M479.94,472.89c-4.08-3.56-9.18-6.32-14.76-5.62s-9.55,5-11.06,10.31a11.31,11.31,0,0,0,.54,8.25,13.37,13.37,0,0,0,5.47,5.38,15.91,15.91,0,0,0,14.58.45,10.3,10.3,0,0,0,5.45-6.53,42.51,42.51,0,0,0,1.09-10.43c0-2.42-3.72-2.42-3.75,0a55.28,55.28,0,0,1-.56,7.49c-.31,2-.86,3.95-2.55,5.27-3,2.35-7.25,2.48-10.71,1.27-3.74-1.32-6.89-4.57-6.26-8.76.6-4,3.1-7.84,7.17-8.82,4.7-1.12,9.27,1.4,12.7,4.39,1.81,1.58,4.47-1.06,2.65-2.65Z"/><path class="cls-25" d="M475.17,475.42a103.91,103.91,0,0,1-14.31,25.08,1.94,1.94,0,0,0,0,2.66,1.89,1.89,0,0,0,2.65,0,110.28,110.28,0,0,0,15.27-26.74,1.89,1.89,0,0,0-1.31-2.31,1.92,1.92,0,0,0-2.3,1.31Z"/><path class="cls-29" d="M535.84,513.15a35,35,0,0,1-37.45,19,36,36,0,0,1-7.11-2c-6.47-1.43-14.09-5.5-31.21-9.54-15-3.54-15.57-15.34-13.34-26.27a208.33,208.33,0,0,0,29.73,19.95C500.2,527.57,523.59,519.47,535.84,513.15Z"/><path class="cls-25" d="M370.75,473.54c.05-2.59,0-5.31-1.31-7.62s-3.54-3.64-5.76-4.76a12.84,12.84,0,0,0-8.21-1.64,17.61,17.61,0,0,0-7.1,3.48c-3.61,2.69-8.43,7.52-6.68,12.54.85,2.42,3,3.76,5.3,4.6a29.78,29.78,0,0,0,8.3,1.66c4.8.32,12.8,0,14.5-5.66.69-2.31-2.93-3.3-3.62-1-.4,1.35-1.86,1.94-3.11,2.29a21.89,21.89,0,0,1-5.92.68,27.6,27.6,0,0,1-6.4-.77c-1.61-.39-3.75-.84-4.94-2.1-2.54-2.72,1.92-6.9,3.83-8.51a18.63,18.63,0,0,1,5.11-3.13,7.67,7.67,0,0,1,5.89.23c1.86.77,4.2,1.91,5.36,3.63s1.05,4.06,1,6.07c0,2.41,3.71,2.41,3.75,0Z"/><path class="cls-26" d="M396.86,485.13c.23-10,0-17.87-10.13-11.46-5,3.18-11.5,3.66-16.77,3.35a35.32,35.32,0,0,0-28.06-14.8c-19.39-.46-35.47,14.51-35.92,33.44s14.91,34.66,34.3,35.11a35.71,35.71,0,0,0,7.35-.58c6.63-.18,14.88-2.73,32.45-3.47C405.46,525.66,396.62,495.1,396.86,485.13Z"/><ellipse class="cls-27" cx="369.22" cy="475.46" rx="3.17" ry="2.2" transform="translate(-187.39 704.74) rotate(-74.56)"/><path class="cls-25" d="M371.6,479.27c3.6-2.1,7.84-3.62,12-2.46s6.24,4.63,6.67,8.68a7.85,7.85,0,0,1-1.21,5.73,9.7,9.7,0,0,1-4.86,3.11,12,12,0,0,1-10.9-1.88,7,7,0,0,1-2.55-5.91,50.66,50.66,0,0,1,.85-8.06,1.94,1.94,0,0,0-1.31-2.31,1.89,1.89,0,0,0-2.3,1.31,55.2,55.2,0,0,0-1,9.06,10.76,10.76,0,0,0,2.62,7.57c3.47,3.87,9.19,5.15,14.16,4.19a14.62,14.62,0,0,0,7.06-3.51,10.41,10.41,0,0,0,3.25-7.38c.22-5.18-2.12-10.76-6.89-13.2C381.48,471.29,375,473,369.7,476a1.88,1.88,0,0,0,1.9,3.24Z"/><path class="cls-25" d="M370.13,480.14a108.74,108.74,0,0,0,9.81,28.68c1.09,2.16,4.33.26,3.24-1.89a105.36,105.36,0,0,1-9.44-27.79c-.45-2.37-4.07-1.36-3.61,1Z"/><path class="cls-29" d="M307.09,505.06a35,35,0,0,0,33.19,25.71,35.71,35.71,0,0,0,7.35-.58c6.63-.18,14.88-2.73,32.45-3.47,15.38-.64,18.19-12.11,18.07-23.27a209.6,209.6,0,0,1-33,14C339.36,526,317.92,513.58,307.09,505.06Z"/><path class="cls-8" d="M545.91,332.21c-.71-2.8-17.29-13.51-18.17-16s13.65,9.05,15.22,9c2.7-.12,2.08-6.27,1.2-9.73s-13.23-8.39-16.47-10.56c-4.24-2.84-2.15-2.38-7.47-5.69-4.29-2.67-10.92-7.66-14.05-11.08-2-12-4.2-23.38-5.7-28l-11.33-59.46-22.92,4.29L479,262c1.47,11.16,5.89,26.72,11.26,38.84l-3.72,24.41s-6.94,13,1.07,10.13c7.17-2.59,11.12-12.26,11.12-12.26s15.86,31.73,17.77,33.61c2.34,2.31,8-1.91,7-5.92-.78-3.21-8.62-18.48-9.65-19.83s17.22,19.07,19.5,22.38,8.48-.1,7.64-6.09S528.68,331.32,524,324.49s15.52,17.32,17.74,17.3C545.85,341.76,546.63,335,545.91,332.21Z"/><path class="cls-12" d="M498.79,350.53c-3.72-41.91-63.53-120.32-63.53-120.32L432,230l-5,.2-6.25-.32s-44.43,75.91-48.18,126.31Z"/><path class="cls-8" d="M431.94,176.17s-1.11,8.78-2.08,11.4,9.84,10.86,9.84,10.86l9.69-11.11s-4.08-10.3-3.52-11.81S431.94,176.17,431.94,176.17Z"/><path class="cls-13" d="M431.94,176.17s-.3,2.35-.72,5a20.41,20.41,0,0,0,8.46,1.66,21.77,21.77,0,0,0,7.6-1.25c-.89-2.64-1.68-5.34-1.41-6.06C446.42,174,431.94,176.17,431.94,176.17Z"/><path class="cls-30" d="M370,58.81c31.44-6.58,40.44,10.48,40.44,10.48S419.37,171,373.12,186.08c-4.06,1.32-3.85,1.25-10.56,2.58-3.3,1-6.64-1.82-6.64-1.82a10,10,0,0,0,2.74-.14,2.92,2.92,0,0,0,2-1.7c4.65-10.72-6.37-5.86-17.64-49.8C330.42,85.92,339.16,65.26,370,58.81Z"/><ellipse class="cls-31" cx="346.66" cy="84.24" rx="5.6" ry="4.51" transform="translate(159.54 387.98) rotate(-72.02)"/><circle class="cls-31" cx="355.01" cy="89.62" r="2.03" transform="translate(160.2 399.64) rotate(-72.02)"/><path class="cls-30" d="M492,51.77c-31.44-6.58-40.44,10.49-40.44,10.49S442.62,164,488.87,179.05c4.06,1.32,3.85,1.24,10.56,2.58,3.3,1,6.64-1.82,6.64-1.82a10,10,0,0,1-2.74-.14,2.92,2.92,0,0,1-2-1.7c-4.65-10.72,6.37-5.86,17.64-49.81C531.57,78.89,522.82,58.23,492,51.77Z"/><path class="cls-8" d="M485.14,124.68c-6.65-4.67-10.77,2.34-12.5,6.46l2-45.14-95.36,21.62,12.39,29.73c-3.62-2.78-9.68-5.91-13.15.68-4.69,8.89,1.42,23.45,17.63,22.53,4.72,9.87,20.14,17.14,38.48,17.18,22,0,39.93-10.36,40.06-23.27C494.75,149.48,494.19,131,485.14,124.68Z"/><path class="cls-6" d="M475.75,140.09c-1.64,8.54-9.9,10.72-19,9.33s-15.6-7.65-14.28-16.24,9-15.62,18.07-14C474.75,121.73,477.36,131.74,475.75,140.09Z"/><path class="cls-7" d="M464.17,136.38c-1,6.38-6.68,10.8-12.74,9.87s-10.18-6.85-9.2-13.23,7.18-13,13.24-12.1S465.15,130,464.17,136.38Z"/><ellipse class="cls-6" cx="455.82" cy="142.86" rx="1.7" ry="2.49" transform="translate(311.97 598.36) rotate(-89.87)"/><path class="cls-6" d="M395.87,148.83c3,8.16,11.5,9,20.29,6.14s14.17-10.05,11.48-18.32-11.37-14-20.08-10.91C393.91,130.54,393,140.84,395.87,148.83Z"/><path class="cls-7" d="M406.8,143.43c2,6.14,8.33,9.59,14.16,7.7s8.94-8.4,7-14.54-9.18-11.71-15-9.82S404.81,137.29,406.8,143.43Z"/><ellipse class="cls-6" cx="421.06" cy="147.68" rx="1.7" ry="2.49" transform="translate(272.46 568.41) rotate(-89.87)"/><circle class="cls-14" cx="417.6" cy="139.87" r="2.58"/><circle class="cls-14" cx="452.63" cy="135.23" r="2.58"/><ellipse class="cls-13" cx="435.96" cy="149.86" rx="5.05" ry="4.46" transform="translate(-17.42 66.39) rotate(-8.54)"/><polygon class="cls-14" points="435.96 152.41 435.68 150.91 436.36 150.85 436.63 152.34 435.96 152.41"/><path class="cls-32" d="M398.55,127.25s8.67-11,21.27-14.47c0,0-2.4-1.17-7.37.1C406,114.53,400.23,120.58,398.55,127.25Z"/><path class="cls-13" d="M396.15,160.56l.05.09-1.92-7.48-.66.17,1.86,7.24C395.71,160.57,395.92,160.58,396.15,160.56Z"/><path class="cls-13" d="M475.62,148.46l-.68,0-.28,6h0c.23-.05.44-.12.66-.18Z"/><polygon class="cls-18" points="379.76 219.21 399.24 221.18 386.14 270.64 379.76 219.21"/><path class="cls-17" d="M427.25,161.55c1-1.87,5.58,1.83,14.93-1.16,2.6-.84,5.49-2.72,6.24-.34.85,2.73-7.3,4.93-13.54,5.23C430.46,165.49,425.68,164.51,427.25,161.55Z"/><path class="cls-7" d="M404.31,125.65c-6.59,3.52-9.1,8.36-9.79,12.53-.3,1.06-.92,2.65-2.1,3.12-3.18,1.29,1.36,3.83,2.44,4.19l0-1.69c.26-3.17,2-13.92,12.55-16.77,1.05-.27,6.39-1.83,16.53,3.35C423.92,130.38,415,119.94,404.31,125.65Z"/><path class="cls-7" d="M460.48,118.31c7.46.3,11.37,4.83,13.43,8.52.63.9,1.74,2.18,3,2.24,3.43.14,0,4.06-.89,4.76l-.55-1.6c-1.32-2.9-6.52-12.46-17.45-11.58-1.08.08-6.89,1-14.71,9.34A16.7,16.7,0,0,1,460.48,118.31Z"/><path class="cls-32" d="M436.86,57.9s30.53-1.73,45.58,21.61,3.61,43.1-6.48,52.45c0,0-25.3-6.29-39.66-18.6,0,0-.21,6.77,2.05,8.21,0,0-9.85-1.14-17.4-6.89-11.76-9-10.38-15-10.38-15s1.22,7.45-7.58,17.41c-12.69,14.36-12.46,17.19-10.57,24.24,0,0-18,1.24-16.92-16.61,0,0-13.87-27.32,9.3-51.73C406.26,50.35,430.3,55,436.86,57.9Z"/><path class="cls-31" d="M393,71.36S380,77.19,376.43,94.83c-1.37,6.81.35,22.39,4.1,29.08C380.53,123.91,372.41,94.82,393,71.36Z"/><path class="cls-31" d="M468.35,68.91s13.06,5.84,16.6,23.48c1.37,6.8-.34,22.38-4.09,29.08C480.86,121.47,489,92.38,468.35,68.91Z"/><ellipse class="cls-31" cx="388.63" cy="83.93" rx="6.45" ry="5.2" transform="translate(187.36 426.81) rotate(-71.77)"/><ellipse class="cls-31" cx="397.11" cy="90.73" rx="2.78" ry="2.56" transform="translate(265.63 476.26) rotate(-84.04)"/><ellipse class="cls-31" cx="402.91" cy="92.88" rx="1.6" ry="1.47" transform="translate(268.68 483.96) rotate(-84.04)"/><ellipse class="cls-31" cx="472.89" cy="83.96" rx="5.2" ry="6.45" transform="translate(-2.83 150.04) rotate(-17.98)"/><ellipse class="cls-31" cx="515.33" cy="77.21" rx="4.51" ry="5.6" transform="translate(1.33 162.81) rotate(-17.98)"/><circle class="cls-31" cx="506.97" cy="82.59" r="2.03" transform="translate(-0.74 160.5) rotate(-17.98)"/><ellipse class="cls-31" cx="463.72" cy="88.3" rx="2.56" ry="2.78" transform="translate(-6.48 46.58) rotate(-5.71)"/><ellipse class="cls-31" cx="457.91" cy="90.43" rx="1.47" ry="1.6" transform="translate(-6.73 46.01) rotate(-5.71)"/><path class="cls-26" d="M474.5,233.23c6.94.33,31.63-9.86,29.11-14-9.46-5.07-6.29-24.51-21.11-33.07-21.51-2.3-25.9-.05-31.58-.06s-14.53,1.23-21.47-1c-5.58-1.79-20.32-1.35-25.91-1.11l-7.37-.53a6.67,6.67,0,0,0-5.86,2.72c-5.23,7.18-18.27,24.9-20.12,26s11.7,14.33,25.07,11.83l-1,54.25,75.6,1Z"/><text class="cls-33" transform="matrix(1, 0.05, -0.05, 1, 408.65, 260.29)">N</text><path class="cls-8" d="M398.51,194s4.28-9.17-3.5-8.41c-7,.67-12.68,8.38-12.68,8.38s-6.9-31.84-8.18-33.94c-1.56-2.58-7.52-.11-7.56,3.68,0,3,3.47,18.4,4.09,19.83s-11-20.87-12.27-24.33-7.57-1.84-8.18,3.68,7.36,17,10,24.13-9.88-18.94-11.86-19.43c-3.71-.91-5.93,4.91-5.93,7.57S353.09,193,353.3,195.42s-8.4-13-9.82-13.29c-2.42-.51-3.27,5.11-3.27,8.38s9.41,11.86,12.47,13.7,2.14,14.12,5.11,18c1.77,2.3,5.07,5,9.78,4.12-.93,11.14-3.44,42-3.17,46.55.33,5.51,14.51,11.68,21.52,1.84,6.27-8.81.92-47-1.11-59a16.52,16.52,0,0,0,3.25-10.29Z"/><path class="cls-19" d="M359.56,207.13c3.3-.41,16.63-6.74,18.7-9.48s-12.93,9.76-12.24,15.26"/><polygon class="cls-6" points="429.36 181.58 439.28 185.89 437.22 197.68 424.96 187.1 429.36 181.58"/><polygon class="cls-6" points="448.92 181.58 439 185.89 441.05 197.68 453.31 187.1 448.92 181.58"/><ellipse class="cls-28" cx="314.43" cy="481.97" rx="3.33" ry="2.31" transform="matrix(0.52, -0.85, 0.85, 0.52, -260.76, 499.71)"/></g></g></g></svg>