<svg xmlns="http://www.w3.org/2000/svg" viewBox="0 0 125 125"><defs><style>.cls-1{isolation:isolate;}.cls-2{fill:#ffeef2;}.cls-3{fill:#eeb2b5;mix-blend-mode:multiply;}.cls-4{fill:#47390e;}</style></defs><g class="cls-1"><g id="レイヤー_2" data-name="レイヤー 2"><g id="レイヤー_1-2" data-name="レイヤー 1"><circle class="cls-2" cx="62.5" cy="62.5" r="62.5"/><g id="四角枠"><path id="花弁" class="cls-3" d="M20.2,65.83c-.76-1.78-2.47-2.6-3.36.13-.08.26-.17.51-.27.77C16.28,67.55,11.33,77,15,75a10.86,10.86,0,0,0,5.36-6.06A4.49,4.49,0,0,0,20.2,65.83Z"/><path id="花弁-2" data-name="花弁" class="cls-3" d="M26.75,53.72c.42-.5,1,.13,1.22.49s.53.78.79,1.22c.26-.1.59,0,.94.56a12,12,0,0,1,1.75,4.36c.18.93-.34,1.44-.88,1.16a7.84,7.84,0,0,1-.86.45,4.59,4.59,0,0,1-.69.88.44.44,0,0,1-.42.22c-.45,0-.8-.48-1-.93a2.28,2.28,0,0,1-1-.79c-1.15-1.52-1-3.68-.62-5.48.12-.58.42-.69.73-.58A1.62,1.62,0,0,1,26.75,53.72Z"/><path id="花弁-3" data-name="花弁" class="cls-3" d="M19.7,54.62c1.59.37,4.22-4.4,4.58-5.7.46-1.7.23-3.51.45-5.24.35-2.8-6.84,3.6-7.4,4.84C16.61,50.12,17.76,54.17,19.7,54.62Z"/><path id="花弁-4" data-name="花弁" class="cls-3" d="M57.27,13.66c-.65.23-1.3.45-1.94.64a5.1,5.1,0,0,1-2.79.84l-.25.33c-.88,1.23-2.83,2.55-3.86,1.47a1.71,1.71,0,0,1-.11-.14,2.14,2.14,0,0,1-.81.11c-.89,0-1-.83-.5-1.68l.16-.23a8.93,8.93,0,0,1,1.32-2.79,1.41,1.41,0,0,1,0-.2c.12-1,1.35-1.86,2.15-2.14l1.76-.62a1.82,1.82,0,0,1,1.55,0A7,7,0,0,1,54.78,9c1.95-.43,3.34.52,4.45,1.88C60.08,11.92,58.11,13.36,57.27,13.66Z"/><g id="花"><path id="花弁-5" data-name="花弁" class="cls-3" d="M34.83,16.69c-2.24-4.44-9.82,2.46-8,4.49l.63.74c-1.55.4-2.57,1.77-.5,3.2,2.67,1.83,12.62,9.28,13.92,3.5C41.65,25.19,36.3,19.58,34.83,16.69Z"/><path id="花弁-6" data-name="花弁" class="cls-3" d="M34.92,29c-2.14-.47-5.15-.25-7-.48s-3.73-2.59-5.1.14c0,.08-.07.17-.11.26a3,3,0,0,0-1.08.28c-2.72,1.34,1.74,6.1,2.9,7,3.49,2.55,10,1.37,12.13-2.48C38.35,30.63,37.07,29.46,34.92,29Z"/><path id="花弁-7" data-name="花弁" class="cls-3" d="M49.78,29.19c-2.1-.79-15.61.81-12,3.69,2,1.58,14.16,11.44,16.54,6C55.59,36,52.2,30.09,49.78,29.19Z"/><path id="花弁-8" data-name="花弁" class="cls-3" d="M44.11,17.65c-.9-1.51-2.3-2.22-4.33-.54C37.92,18.64,38,23,37.91,25.16a39.76,39.76,0,0,0,.16,6.9c1.14,8.93,7.44-5.86,7.35-9.17A11.87,11.87,0,0,0,44.11,17.65Z"/><path id="花弁-9" data-name="花弁" class="cls-3" d="M38.76,29.74c-.73-.46-1.5-.23-2.2,1.45-2.16,5.22-4.64,8.41-4.5,14.57,0,2,1.35,2.8,2.35,1.93a14.27,14.27,0,0,0,2,.47,8.84,8.84,0,0,0,1.85,1.46,1,1,0,0,0,1,.23c.93-.26,1.47-1.42,1.65-2.47a5.17,5.17,0,0,0,1.74-2.17c1.82-4,.33-8-1.36-11.65C40.74,32.4,39.79,30.38,38.76,29.74Z"/></g></g><g id="花-2" data-name="花"><path id="花弁-10" data-name="花弁" class="cls-3" d="M100.83,86.33c.48.56,1.14,1.62,1.91,1.75a1.18,1.18,0,0,1,.67,2.14c-.18.18-.34.36-.51.54,1.24.29,2.06,1.3.4,2.34C100,95.18,98,97.42,93.69,96.89,90.59,96.5,99.86,85.2,100.83,86.33Z"/><path id="花弁-11" data-name="花弁" class="cls-3" d="M96.92,95.77c1.4-.39,14.34-1,10.8,2.29l-.21.18a7.57,7.57,0,0,1-1.88,2.45.79.79,0,0,1,0,.2c-1.44,4.6-10.12-.71-11.24-3.09C94,97,95.15,96.27,96.92,95.77Z"/><path id="花弁-12" data-name="花弁" class="cls-3" d="M85.1,96.07c1.69-.58,12.26.73,9.56,2.7-2.23,1.62-4.19,3.75-7,4.45-1.16.29-5.62,1.24-6.24-.07C80.46,101.05,83.17,96.73,85.1,96.07Z"/><path id="花弁-13" data-name="花弁" class="cls-3" d="M86.68,88.45a6.23,6.23,0,0,1,.72-1.76c1-1.77,5.23,3,5.86,3.84,1.74,2.46,5.21,11-1.19,7a14.82,14.82,0,0,1-4.66-5.29A5.72,5.72,0,0,1,86.68,88.45Z"/><path id="花弁-14" data-name="花弁" class="cls-3" d="M93.83,96.53C96.31,95.1,99,107.7,99,109.33s-1.14,2.27-1.92,1.58a12,12,0,0,1-1.62.41c-1.83.31-2,2.07-3.93.54-3.58-2.78-1.21-13.36,2.33-15.33Z"/></g><g id="花-3" data-name="花"><path id="花弁-15" data-name="花弁" class="cls-3" d="M106.8,70.83c2.06-.9,3.29.25,3.06,1.91s-2.94,3.64-4.13,4.44c-.79.53-3.18,1.67-4.06.85-1.11-1,1.36-5.83,2.54-6.34C105.05,71.32,106,71.19,106.8,70.83Z"/><path id="花弁-16" data-name="花弁" class="cls-3" d="M104.11,76.47a19,19,0,0,1,4.11-2.84c2.56-.69,4.82,1.07,3.4,3.65s-5.47,2.43-8,2.55c-.56,0-1.44-.12-1.61-.71S102.87,77.54,104.11,76.47Z"/><path id="花弁-17" data-name="花弁" class="cls-3" d="M104,70.57l-.06.52a.46.46,0,0,1,0,.4l-.12.34c-.42,1.25.56,5.86-1,6.81-3.3,2.07-3.94-5.24-3.52-7a1,1,0,0,1,1-.7,4.19,4.19,0,0,1,1.08-1.06C102.18,69.5,104.16,69.48,104,70.57Z"/><path id="花弁-18" data-name="花弁" class="cls-3" d="M102.88,77.52a2.24,2.24,0,0,1,2-.46C105.16,79.61,99,81,99,81.3,98.9,79.48,101.09,77.82,102.88,77.52Z"/></g><path class="cls-4" d="M80.18,40.72c-.41.19-.83.34-1.21.53a7.71,7.71,0,0,0-2.16,1.56l-.64.71a1.13,1.13,0,0,1-.65.42,3,3,0,0,1-2-.6,33.82,33.82,0,0,1-6.17-4.55,46.47,46.47,0,0,1-6-7.38,32.62,32.62,0,0,1-2.84,5.11c-.87,1.21-1.63,2.19-2.27,2.91,1.13,0,2,.08,2.61,0s1.74-.07,3.52-.15c.34-.57.91-1.4,1.71-2.57.64.49,1.51,1.17,2.65,2.12.57.56.83,1,.79,1.17s-.45.3-1.13.3l-2.88.08c-1.7,0-3.26.11-4.58.19-.5.07-1.37.19-2.69.3a9.44,9.44,0,0,1-.46-.95,22.56,22.56,0,0,1-3.56,3.15,29.37,29.37,0,0,1-6.55,3.52c-.72.27-1.1.3-1.21.15a.21.21,0,0,1,0-.15c0-.15.27-.45.87-.83a39.18,39.18,0,0,0,4.13-3.07,28.32,28.32,0,0,0,5.38-6.36,36.26,36.26,0,0,0,3.86-10.23L62,28.07c.87.53,1.28,1,1.25,1.37s-.5.64-1.37.83l-.07.19c1,1.17,1.78,2,2.19,2.42a19.17,19.17,0,0,0,2.43,2,27.66,27.66,0,0,0,5.75,3,36.18,36.18,0,0,0,7,1.78,9.54,9.54,0,0,0,1.1.07c.34,0,.53.19.57.38S80.6,40.53,80.18,40.72Zm-9.62,7c0,.79,0,2-.19,3.52A5.76,5.76,0,0,1,69.5,54a5.47,5.47,0,0,1-1.59,1.4,2.14,2.14,0,0,1-1.51.49c-.27-.08-.49-.42-.72-1A4.1,4.1,0,0,0,65,53.56a11.76,11.76,0,0,0-1.25-1.06c-.46-.34-.65-.61-.61-.72s.31-.19.8-.11a14,14,0,0,0,1.82.19,1.8,1.8,0,0,0,.94-.15c.19-.12.34-.61.46-1.44A38.77,38.77,0,0,0,67.31,46c-1,0-3.37.19-7.35.38.64.18,1.21.37,1.67.53.75.26,1.13.56,1.09.83s-.3.57-.83.91c0,.91,0,2.27.08,4.09s0,3.18,0,4.09a5.65,5.65,0,0,1-.34,2.27,3.4,3.4,0,0,1-2.16,1.78,2.59,2.59,0,0,1-.94.15c-.27-.07-.34-.38-.31-.87,0-.72.12-1.25.16-1.67.07-.72.15-1.81.19-3.21s.07-3.38.07-5.61c0-.23,0-1.29-.11-3.22-1,0-1.82.11-2.62.15-1.13.08-2.38.23-3.78.46a7.25,7.25,0,0,1-.8-1.63h3.83l11.93-.57c.3-.42.75-1,1.36-1.7.76.56,1.51,1.17,2.27,1.81S72,46.21,72,46.55,71.47,47.27,70.56,47.73Z"/><path class="cls-4" d="M76.4,89.92c-1.63,0-2.84.08-3.68.12-1.1.07-2.91.19-5.49.3v.42a3.85,3.85,0,0,1-.87,2.88,4,4,0,0,1-1.25.79,2,2,0,0,1-1.4.23c-.19-.08-.27-.46-.23-1.14s.11-1.59.11-2.8c.08-3.67,0-6.25-.07-7.73-.11-2.23-.19-4-.3-5.26-.08.19-.57.3-1.48.3-1.25,0-2.5.08-3.71.15L57,78.26v2.2c.38.11.79.22,1.25.38,2.76,1,4.2,2.42,4.35,4.24a2.41,2.41,0,0,1-.64,2,2.13,2.13,0,0,1-2,.64,1.48,1.48,0,0,1-1.36-1.33c0-.37-.08-1-.19-1.81a5.28,5.28,0,0,0-1.44-3v6.25c0,.15,0,1.55,0,4.21a20.71,20.71,0,0,1,0,2.46A3.37,3.37,0,0,1,56,96a5.7,5.7,0,0,1-1.63,1c-.56.26-.94.34-1.13.26s-.27-.34-.23-.75.11-1.06.19-1.78c.15-1.25.34-3.15.57-5.68.23-3,.38-5.34.45-7.16a34.6,34.6,0,0,1-6,7,21.38,21.38,0,0,1-3,2.24c-.42.26-.69.3-.8.19s0-.38.42-.76a47.87,47.87,0,0,0,4.39-4.92c.38-.5,1.21-1.82,2.46-4a34,34,0,0,0,1.52-3.11c-1.33.12-2.46.23-3.41.34-.76.08-2,.27-3.71.53a14.89,14.89,0,0,1-.87-1.7c.94,0,2.31,0,4.16-.15l4.47-.3V73.6c0-.64,0-1.47,0-2.46-.49.11-1,.27-1.51.38a38.21,38.21,0,0,1-3.86.61c-.69.07-1.06,0-1.1-.16s.3-.41,1-.68c.42-.15,1.1-.34,2-.72a26.69,26.69,0,0,0,8.75-5.49c.49.53,1.25,1.4,2.24,2.58a1.83,1.83,0,0,1,.53,1.13c0,.31-.31.46-.76.49a5.23,5.23,0,0,1-1.18-.07,27.92,27.92,0,0,1-2.88,1c-.45.15-.9.27-1.36.42a13.22,13.22,0,0,1,1.4.49c.61.3.91.57.91.83s-.34.72-1,1.14v3.94l.72,0c.34-.61.94-1.55,1.78-2.84,1.32,1,2.38,1.7,3.1,2.31.15.15.34.34.57.61-.11-.72-.27-2-.49-4.06.57.19,1.47.46,2.76,1a20.32,20.32,0,0,1,2.31,1.06l4.4-.27,1.51-2c.57.42,1.52,1,2.69,2,1,.72,1.36,1.29,1.36,1.63s-.19.49-.53.72-.72.41-1.06.6c-.15,2.46-.3,5.46-.45,8.9A16.44,16.44,0,0,1,77.19,88c.61.65.91,1.1.87,1.29C78,89.66,77.42,89.89,76.4,89.92ZM66.7,76.33c.11,2.92.3,7.19.49,12.84,1.25-.08,2.77-.15,4.55-.23.11-3.07.3-7.38.53-13Z"/></g></g></g></svg>