<svg xmlns="http://www.w3.org/2000/svg" viewBox="0 0 286.18 322.36"><defs><style>.cls-1{isolation:isolate;}.cls-2{fill:#ada0f9;}.cls-3{mix-blend-mode:multiply;opacity:0.3;}.cls-4{fill:#fff;}.cls-5{fill:#493c41;}.cls-6{fill:#fefefe;}.cls-7{fill:#6255e0;}</style></defs><g class="cls-1"><g id="レイヤー_2" data-name="レイヤー 2"><g id="レイヤー_1-2" data-name="レイヤー 1"><path class="cls-2" d="M233.25,293.71c-3.21-2.33-3.78-7-3.78-11V95.53h0c0-.37,0-.74,0-1.11C229.47,42.27,190.89,0,143.3,0S57.13,42.27,57.13,94.42c0,.37,0,.74,0,1.11h0v183a17.73,17.73,0,0,1-8.83,15.25c-3.94,2.33-8.26,5.58-10.73,9.64-5.39,8.86,12.44,23.83,33.51,8.09,12.14-9.08,17.52-9.31,24.78-8.77,16.74,1.27,13.49,18.64,30.64,19.59,19.58,1.09,8.15-19.82,29.69-18.95,23.71.95,14.22,18.32,33.8,17.37,14.27-.69,7.31-15.77,21.48-19.9,15.16-4.42,39.93,31.4,46.41,13C260.36,306.74,246.34,303.24,233.25,293.71Z"/><g class="cls-3"><path class="cls-2" d="M74.77,121.05c7.13,0,10.62-5,14.31-10.21s7.35-10.45,14.76-10.45,11.15,5.31,14.77,10.45,7.19,10.21,14.31,10.21,10.62-5,14.32-10.21,7.35-10.45,14.76-10.45,11.15,5.31,14.76,10.45,7.19,10.21,14.32,10.21,10.62-5,14.32-10.21,7.35-10.45,14.76-10.45a13.17,13.17,0,0,1,9.31,3.76V95.53h0c0-.37,0-.74,0-1.11C229.47,42.27,190.89,0,143.3,0S57.13,42.27,57.13,94.42c0,.37,0,.74,0,1.11h0v10.85c1.18,1.41,2.26,2.94,3.33,4.46C64.15,116.09,67.64,121.05,74.77,121.05Z"/></g><path class="cls-2" d="M227.55,109.39s7.84,120.55,25.92,138,36.77,25.31,31.94,41-42.19,19.89-66.3-22.31S213.09,120.85,227.55,109.39Z"/><path class="cls-4" d="M85,24.76A25,25,0,1,0,129,1.28,83.14,83.14,0,0,0,85,24.76Z"/><path class="cls-5" d="M97.66,15A13,13,0,1,0,117.93,4.16,82.65,82.65,0,0,0,97.7,14.3C97.68,14.53,97.66,14.76,97.66,15Z"/><circle class="cls-6" cx="107.6" cy="21.62" r="4.5"/><path class="cls-4" d="M201.6,24.76a25,25,0,1,1-44-23.48A83.14,83.14,0,0,1,201.6,24.76Z"/><path class="cls-5" d="M188.94,15A13,13,0,1,1,168.67,4.16,82.65,82.65,0,0,1,188.9,14.3C188.92,14.53,188.94,14.76,188.94,15Z"/><circle class="cls-6" cx="179" cy="21.62" r="4.5"/><path class="cls-7" d="M148.86,35.14a10.08,10.08,0,0,0-5.32-1.45,12,12,0,0,0-5.91,1.45c-3.24,1.86-6.55,3-4.67,5.45s3.82.55,7.06-1.32l0,0a6.31,6.31,0,0,1,6.37,0l0,0c3.24,1.87,5.25,3.69,7.06,1.32S152.1,37,148.86,35.14Z"/><path class="cls-2" d="M58.63,109.39s-7.83,120.55-25.92,138S-4,272.73.77,288.41,43,308.3,67.07,266.1,73.1,120.85,58.63,109.39Z"/><path class="cls-7" d="M58.61,280.41c9-11.83,17.28-24.26,20.68-39,2-8.47,2.15-17.15,2-25.81-.12-7.79-.73-15.57-1.45-23.32C79,183.55,78,174.8,77.19,166c-.16-1.59-2.66-1.6-2.5,0,1.48,15.32,3.5,30.61,4,46,.29,8.62.38,17.43-1.24,25.93a73.57,73.57,0,0,1-7.09,20.25c-3.89,7.45-8.85,14.27-13.94,20.94-1,1.28,1.2,2.52,2.16,1.26Z"/><path class="cls-7" d="M230.26,279.5a138.13,138.13,0,0,1-12.35-18.71,80.7,80.7,0,0,1-7.41-20c-1.93-8.56-2.07-17.28-1.9-26,.14-7.65.76-15.28,1.47-22.89.81-8.63,1.79-17.24,2.63-25.86.15-1.6-2.35-1.59-2.5,0-1.51,15.58-3.59,31.14-4.06,46.8-.25,8.6-.25,17.31,1.36,25.79a82.7,82.7,0,0,0,6.85,20.67,128.7,128.7,0,0,0,13.76,21.48c1,1.26,3.13,0,2.15-1.27Z"/></g></g></g></svg>